# AST/ASF file generated using VICON BodyLanguage
# -----------------------------------------------
:version 1.10
:name VICON
:units
  mass 1.0
  length 0.45
  angle deg
:documentation
   .ast/.asf automatically generated from VICON data using
   VICON BodyBuilder and BodyLanguage model FoxedUp or BRILLIANT.MOD
:root
   order TX TY TZ RX RY RZ
   axis XYZ
   position 0 0 0  
   orientation 0 0 0 
:bonedata
  begin
     id 1 
     name lhipjoint
     direction 0.602128 -0.715006 0.355257 
     length 2.21237 
     axis 0 0 0  XYZ
  end
  begin
     id 2 
     name lfemur
     direction 0.34202 -0.939693 0  
     length 6.71649  
     axis 0 0 20  XYZ
    dof rx ry rz
    limits (-160.0 20.0)
           (-70.0 70.0)
           (-60.0 70.0)
  end
  begin
     id 3 
     name ltibia
     direction 0.34202 -0.939693 0   
     length 6.97123   
     axis 0 0 20   XYZ
    dof rx
    limits (-10.0 170.0)
  end
  begin
     id 4 
     name lfoot
     direction 0.0655697 -0.180151 0.981451   
     length 1.80924   
     axis -90 7.62852e-016 20   XYZ
    dof rx rz
    limits (-45.0 90.0)
           (-70.0 20.0)
  end
  begin
     id 5 
     name ltoes
     direction 1.53545e-011 -4.21827e-011 1   
     length 0.916331   
     axis -90 7.62852e-016 20   XYZ
    dof rx
    limits (-90.0 20.0)
  end
  begin
     id 6 
     name rhipjoint
     direction -0.625414 -0.698792 0.347201   
     length 2.2637  
     axis 0 0 0  XYZ 
  end
  begin
     id 7 
     name rfemur
     direction -0.34202 -0.939693 0   
     length 7.07595   
     axis 0 0 -20   XYZ
    dof rx ry rz
    limits (-160.0 20.0)
           (-70.0 70.0)
           (-70.0 60.0)
  end
  begin
     id 8 
     name rtibia
     direction -0.34202 -0.939693 0   
     length 7.22924   
     axis 0 0 -20   XYZ
    dof rx
    limits (-10.0 170.0)
 end
 begin
     id 9 
     name rfoot
     direction -0.0766747 -0.210662 0.974547   
     length 1.98482  
     axis -90 -7.62852e-016 -20   XYZ
    dof rx rz
    limits (-45.0 90.0)
           (-20.0 70.0)
  end
  begin
     id 10 
     name rtoes
     direction -1.53532e-011 -4.21867e-011 1   
     length 0.999842   
     axis -90 -7.62852e-016 -20   XYZ
    dof rx
    limits (-90.0 20.0)
  end
  begin
     id 11 
     name lowerback
     direction -0.0224668 0.997354 -0.0691422   
     length 2.09945   
     axis 0 0 0   XYZ
    dof rx ry rz
    limits (-20.0 45.0)
           (-30.0 30.0)
           (-30.0 30.0)
  end
  begin
     id 12 
     name upperback
     direction 0.0134698 0.998451 -0.0539888   
     length 2.09758   
     axis 0 0 0   XYZ
    dof rx ry rz
    limits (-20.0 45.0)
           (-30.0 30.0)
           (-30.0 30.0)
  end
  begin
     id 13 
     name thorax
     direction 0.0241905 0.99948 -0.0213333   
     length 2.10428   
     axis 0 0 0   XYZ
    dof rx ry rz
    limits (-20.0 45.0)
           (-30.0 30.0)
           (-30.0 30.0)
  end
  begin
     id 14 
     name lowerneck
     direction -0.00866847 0.995978 0.0891737   
     length 1.3959   
     axis 0 0 0   XYZ
    dof rx ry rz
    limits (-20.0 45.0)
           (-30.0 30.0)
           (-30.0 30.0)
  end
  begin
     id 15 
     name upperneck
     direction 0.0680679 0.992203 0.104404   
     length 1.39452   
     axis 0 0 0   XYZ
    dof rx ry rz
    limits (-20.0 45.0)
           (-30.0 30.0)
           (-30.0 30.0)
  end
  begin
     id 16
     name head
     direction 0.0242216 0.999358 0.0264054  
     length 1.40433  
     axis 0 0 0   XYZ
    dof rx ry rz
    limits (-20.0 45.0)
           (-30.0 30.0)
           (-30.0 30.0)
  end
  begin
     id 17 
     name lclavicle
     direction 0.929368 0.362991 -0.0671771  
     length 3.04887  
     axis 0 0 0   XYZ
    dof ry rz
    limits (-20.0 10.0)
           (0.0 20.0)
  end
  begin
     id 18 
     name lhumerus
     direction 1 -4.48967e-011 -7.13741e-028   
     length 4.77195   
     axis -180 -30 -90   XYZ
    dof rx ry rz
    limits (-60.0 90.0)
           (-90.0 90.0)
           (-90.0 90.0)
  end
  begin
     id 19
     name lradius
     direction 1 -4.48977e-011 3.60404e-027   
     length 2.98444   
     axis -180 -30 -90   XYZ
    dof rx
    limits (-10.0 170.0)
  end
  begin
     id 20
     name lwrist
     direction 1 -4.48997e-011 7.54877e-027   
     length 1.49222   
     axis -7.18178e-015 90 90   XYZ
    dof ry
    limits (-180.0 0.0)
 end
  begin
     id 21 
     name lhand
     direction 1 -4.489e-011 1.51105e-026   
     length 0.992285   
     axis -9.63605e-015 90 90   XYZ
    dof rx rz
    limits (-90.0 90.0)
           (-45.0 45.0)
  end
  begin
     id 22 
     name lfingers
     direction 1 -4.48998e-011 3.01948e-026   
     length 0.800006   
     axis -1.92718e-014 90 90   XYZ
    dof rx
    limits (0.0 90.0)
  end
  begin
     id 23
     name lthumb
     direction 0.707107 -6.34881e-011 0.707107   
     length 1.14865   
     axis -90 45 -3.53137e-014   XYZ
    dof rx rz
    limits (-45.0 45.0)
           (-45.0 45.0)
  end
  begin
     id 24 
     name rclavicle
     direction -0.945672 0.324529 0.0196374   
     length 3.4236  
     axis 0 0 0   XYZ 
    dof ry rz
    limits (-10.0 20.0)
           (-20.0 0.0)
  end
  begin
     id 25 
     name rhumerus
     direction -1 -4.4896e-011 1.02757e-029  
     length 4.62052   
     axis -180 30 90   XYZ
    dof rx ry rz
    limits (-90.0 60.0)
           (-90.0 90.0)
           (-90.0 90.0)
  end
  begin
     id 26 
     name rradius
     direction -1 -4.48982e-011 3.85962e-027   
     length 2.95332   
     axis -180 30 90   XYZ
    dof rx
    limits (-10.0 170.0)
  end
  begin
     id 27 
     name rwrist
     direction -1 -4.48961e-011 7.55118e-027   
     length 1.47666   
     axis -7.18178e-015 -90 -90   XYZ
    dof ry
    limits (-180.0 0.0)
  end
  begin
     id 28
     name rhand
     direction -1 -4.48984e-011 1.50994e-026   
     length 0.990956   
     axis -9.63605e-015 -90 -90   XYZ
    dof rx rz
    limits (-90.0 90.0)
           (-45.0 45.0)
  end
  begin
     id 29
     name rfingers
     direction -1 -4.4892e-011 3.02158e-026   
     length 0.798934   
     axis -1.92718e-014 -90 -90   XYZ
    dof rx
    limits (0.0 90.0)
  end
  begin
     id 30
     name rthumb
     direction -0.707107 -6.34916e-011 0.707107   
     length 1.14711   
     axis -90 -45 3.53137e-014   XYZ
    dof rx rz
    limits (-45.0 45.0)
           (-45.0 45.0)
  end
:hierarchy
  begin
    root lhipjoint rhipjoint lowerback
    lhipjoint lfemur
    lfemur ltibia
    ltibia lfoot
    lfoot ltoes
    rhipjoint rfemur
    rfemur rtibia
    rtibia rfoot
    rfoot rtoes
    lowerback upperback
    upperback thorax
    thorax lowerneck lclavicle rclavicle
    lowerneck upperneck
    upperneck head
    lclavicle lhumerus
    lhumerus lradius
    lradius lwrist
    lwrist lhand lthumb
    lhand lfingers
    rclavicle rhumerus
    rhumerus rradius
    rradius rwrist
    rwrist rhand rthumb
    rhand rfingers
  end

#!OML:ASF H:\ManfredObstacles\Project 1\Capture day 1\Session 1\Male.ASF
:FULLY-SPECIFIED
:DEGREES
161
root 16.792 16.2377 24.4686 -172.864 0.734386 -182.35
lowerback -7.99278 -1.51389 -5.0701
upperback 1.644 -1.43471 -0.57243
thorax 6.33314 -0.869908 2.05826
lowerneck 0.962972 -1.11675 -5.42409
upperneck -8.28744 -0.784502 8.06213
head -2.81277 -0.331898 3.67697
rclavicle -1.56046e-014 -1.64991e-014
rhumerus -36.5657 -25.2769 -74.4159
rradius 26.5065
rwrist 30.886
rhand -0.782762 -5.40043
rfingers 7.12502
rthumb 24.8404 -33.8068
lclavicle -1.56046e-014 -1.64991e-014
lhumerus -27.3873 18.2396 78.1951
lradius 17.3374
lwrist -36.661
lhand -8.35155 9.98372
lfingers 7.12502
lthumb 17.5706 39.2097
rfemur -25.3207 -8.40599 16.6587
rtibia 71.1031
rfoot -3.97341 7.31355
rtoes -2.57387
lfemur -14.5258 5.52638 -26.6245
ltibia 18.5064
lfoot -1.61827 -14.9444
ltoes 6.33883
162
root 16.7788 16.2191 24.3221 -172.94 0.201662 -182.457
lowerback -7.7977 -1.69558 -5.22938
upperback 1.76624 -1.67566 -0.48923
thorax 6.37798 -0.999787 2.20387
lowerneck 0.751434 -1.18497 -5.38298
upperneck -8.05334 -0.905683 7.8789
head -2.68333 -0.388746 3.59772
rclavicle 1.26228e-014 5.56597e-015
rhumerus -36.3753 -25.0319 -74.4145
rradius 26.5899
rwrist 30.8154
rhand -0.690764 -5.17469
rfingers 7.12502
rthumb 24.9286 -33.5688
lclavicle 1.26228e-014 5.56597e-015
lhumerus -26.5986 17.3319 78.9608
lradius 17.5963
lwrist -35.9069
lhand -8.1942 10.0061
lfingers 7.12502
lthumb 17.722 39.2185
rfemur -27.3669 -8.29029 16.7607
rtibia 70.8395
rfoot -5.8913 7.41262
rtoes 2.25824
lfemur -14.2445 5.11582 -26.7021
ltibia 19.2849
lfoot -2.11073 -15.1605
ltoes 7.9484
163
root 16.7668 16.1951 24.1785 -173.064 -0.323029 -182.368
lowerback -7.52064 -1.81286 -5.19403
upperback 1.88452 -1.91077 -0.364283
thorax 6.36504 -1.14065 2.28571
lowerneck 0.574848 -1.20628 -5.39153
upperneck -7.88587 -0.9438 7.84752
head -2.59085 -0.404746 3.5824
rclavicle 2.18663e-015 6.75868e-015
rhumerus -36.3288 -24.7941 -74.3753
rradius 26.6563
rwrist 30.7101
rhand -0.630956 -5.2033
rfingers 7.12502
rthumb 24.9859 -33.5895
lclavicle 2.18663e-015 6.75868e-015
lhumerus -25.9205 16.3919 79.6982
lradius 17.9322
lwrist -35.0421
lhand -8.16749 10.0111
lfingers 7.12502
lthumb 17.7477 39.2212
rfemur -29.2265 -8.03611 17.0575
rtibia 70.0423
rfoot -7.562 6.97422
rtoes 0.667108
lfemur -13.9314 4.62269 -26.5617
ltibia 20.0666
lfoot -2.98775 -15.2128
ltoes 7.52272
164
root 16.757 16.1724 24.0286 -173.073 -0.930421 -181.825
lowerback -7.41879 -1.96536 -4.64431
upperback 1.95354 -2.17704 -0.159162
thorax 6.38638 -1.25323 2.15881
lowerneck 0.598049 -1.24118 -5.34308
upperneck -7.87982 -0.990625 7.85464
head -2.58945 -0.430265 3.57661
rclavicle -8.00108e-015 -4.37326e-015
rhumerus -36.4699 -24.5223 -74.3656
rradius 26.7859
rwrist 30.5176
rhand -0.659743 -5.30844
rfingers 7.12502
rthumb 24.9583 -33.6985
lclavicle -8.00108e-015 -4.37326e-015
lhumerus -25.4253 15.3456 80.351
lradius 18.425
lwrist -34.0096
lhand -8.07434 10.1405
lfingers 7.12502
lthumb 17.8373 39.3424
rfemur -30.9855 -7.78014 17.8905
rtibia 68.6902
rfoot -9.42143 5.77391
rtoes 0.519702
lfemur -13.6546 4.11928 -25.9227
ltibia 20.7181
lfoot -3.86328 -15.3174
ltoes 6.8302
165
root 16.7535 16.1467 23.8783 -173.274 -1.58431 -182.133
lowerback -7.088 -2.17215 -5.06294
upperback 2.10314 -2.4325 -0.160245
thorax 6.39533 -1.39998 2.365
lowerneck 0.502084 -1.29768 -5.29161
upperneck -7.86497 -1.0612 7.83675
head -2.56099 -0.463484 3.55952
rclavicle -1.73937e-014 -7.95139e-016
rhumerus -36.5824 -24.5104 -74.2241
rradius 26.7859
rwrist 30.5951
rhand -0.69587 -5.30075
rfingers 7.12502
rthumb 24.9237 -33.6956
lclavicle -1.73937e-014 -7.95139e-016
lhumerus -24.8353 14.0821 81.1164
lradius 18.9078
lwrist -32.6397
lhand -8.1235 10.16
lfingers 7.12502
lthumb 17.79 39.3663
rfemur -32.4093 -7.87686 17.7155
rtibia 66.9609
rfoot -10.9871 4.5632
rtoes 1.69271
lfemur -13.0427 3.78203 -26.198
ltibia 21.1838
lfoot -4.55918 -15.7272
ltoes 7.05301
166
root 16.7527 16.1244 23.7275 -173.385 -2.14116 -182.23
lowerback -6.80831 -2.26926 -5.25059
upperback 2.15568 -2.56352 -0.138481
thorax 6.31242 -1.47259 2.48403
lowerneck 0.609579 -1.36683 -5.23535
upperneck -7.87603 -1.15087 7.91066
head -2.57802 -0.513582 3.57837
rclavicle -4.37326e-015 -9.74045e-015
rhumerus -36.9849 -24.8221 -73.8284
rradius 26.6848
rwrist 30.868
rhand -0.725514 -5.34034
rfingers 7.12502
rthumb 24.8953 -33.7391
lclavicle -4.37326e-015 -9.74045e-015
lhumerus -24.4435 12.448 81.9103
lradius 19.443
lwrist -31.0244
lhand -8.32308 10.0871
lfingers 7.12502
lthumb 17.5979 39.3107
rfemur -33.7616 -7.84169 17.7196
rtibia 64.7833
rfoot -12.1592 3.56449
rtoes 1.58087
lfemur -12.4083 3.56985 -26.2371
ltibia 21.3813
lfoot -5.11299 -16.1387
ltoes 7.49476
167
root 16.7527 16.1107 23.5725 -173.354 -2.55054 -182.087
lowerback -6.65411 -2.26407 -5.17744
upperback 2.06022 -2.57595 -0.0761663
thorax 6.12334 -1.47056 2.51486
lowerneck 1.00814 -1.45483 -5.22937
upperneck -7.91408 -1.27064 8.1319
head -2.65665 -0.588715 3.66592
rclavicle -2.31087e-015 1.78906e-015
rhumerus -37.692 -25.2961 -73.216
rradius 26.5413
rwrist 31.054
rhand -0.71682 -5.57556
rfingers 7.12502
rthumb 24.9036 -33.9732
lclavicle -2.31087e-015 1.78906e-015
lhumerus -24.478 10.9146 82.5542
lradius 20.1458
lwrist -29.7999
lhand -8.29781 10.0901
lfingers 7.12502
lthumb 17.6223 39.3115
rfemur -35.0686 -7.51983 17.9073
rtibia 62.191
rfoot -13.2642 2.72696
rtoes -0.612378
lfemur -11.7226 3.4711 -26.0102
ltibia 21.1539
lfoot -5.49678 -16.4916
ltoes 7.19036
168
root 16.753 16.1094 23.4124 -173.287 -3.03493 -181.942
lowerback -6.56112 -2.3347 -5.15704
upperback 1.97945 -2.68345 0.0573994
thorax 5.9998 -1.52001 2.63521
lowerneck 1.11842 -1.51142 -5.34925
upperneck -7.79382 -1.35383 8.33296
head -2.63066 -0.635923 3.76155
rclavicle -1.33186e-014 8.15017e-015
rhumerus -38.2616 -25.7691 -72.5214
rradius 26.2965
rwrist 31.4399
rhand -0.677108 -5.77339
rfingers 7.12502
rthumb 24.9417 -34.1657
lclavicle -1.33186e-014 8.15017e-015
lhumerus -24.4812 9.88932 83.1399
lradius 20.7023
lwrist -29.1049
lhand -8.1692 10.0824
lfingers 7.12502
lthumb 17.746 39.2927
rfemur -36.1337 -7.23047 18.0055
rtibia 59.1884
rfoot -13.4268 2.22498
rtoes -0.276888
lfemur -10.9093 3.19062 -25.7463
ltibia 20.6559
lfoot -5.71463 -16.792
ltoes 7.63782
169
root 16.7566 16.1098 23.2501 -173.291 -3.57008 -182.036
lowerback -6.52099 -2.47921 -5.42405
upperback 2.05965 -2.85908 0.150973
thorax 6.09754 -1.62233 2.85978
lowerneck 0.940933 -1.56592 -5.42199
upperneck -7.69251 -1.42553 8.38076
head -2.5576 -0.666487 3.78807
rclavicle 2.96562e-014 -1.76918e-014
rhumerus -38.5107 -26.3804 -71.9131
rradius 25.9041
rwrist 32.045
rhand -0.753785 -6.00571
rfingers 7.12502
rthumb 24.8682 -34.4082
lclavicle 2.96562e-014 -1.76918e-014
lhumerus -24.1239 9.13733 83.7254
lradius 20.9648
lwrist -28.3994
lhand -8.14495 10.142
lfingers 7.12502
lthumb 17.7694 39.3501
rfemur -36.8486 -6.99332 17.7683
rtibia 55.8643
rfoot -13.4882 2.0424
rtoes -0.798987
lfemur -9.85719 2.75533 -25.7055
ltibia 19.9317
lfoot -5.75395 -17.0225
ltoes 8.79345
170
root 16.7623 16.1122 23.0848 -173.229 -4.04455 -182.205
lowerback -6.63517 -2.56511 -5.67085
upperback 2.13867 -2.94333 0.120626
thorax 6.2674 -1.67885 2.94829
lowerneck 0.872267 -1.6492 -5.31907
upperneck -7.61737 -1.53236 8.41315
head -2.51103 -0.720995 3.77809
rclavicle 2.89977e-014 -9.54166e-015
rhumerus -38.8799 -27.4391 -71.2214
rradius 25.3428
rwrist 32.8667
rhand -0.979097 -6.16514
rfingers 7.12502
rthumb 24.6522 -34.5973
lclavicle 2.89977e-014 -9.54166e-015
lhumerus -23.7911 8.37277 84.1542
lradius 21.1025
lwrist -27.7838
lhand -8.24272 10.1771
lfingers 7.12502
lthumb 17.6753 39.3937
rfemur -37.3884 -6.65013 17.387
rtibia 52.2651
rfoot -13.3718 2.30441
rtoes -2.36222
lfemur -8.746 2.74782 -25.756
ltibia 18.9329
lfoot -5.59152 -17.4846
ltoes 8.48019
171
root 16.7663 16.1232 22.9181 -173.075 -4.53324 -181.991
lowerback -6.82223 -2.61812 -5.42221
upperback 2.1123 -3.02467 0.151745
thorax 6.34152 -1.70965 2.82429
lowerneck 0.9394 -1.71222 -5.33211
upperneck -7.48664 -1.61733 8.60227
head -2.47282 -0.769214 3.84756
rclavicle -3.00413e-014 -9.74045e-015
rhumerus -39.4295 -28.5838 -70.3999
rradius 24.6937
rwrist 33.9046
rhand -1.11442 -6.07127
rfingers 7.12502
rthumb 24.5225 -34.5211
lclavicle -3.00413e-014 -9.74045e-015
lhumerus -23.7024 7.64072 84.4591
lradius 21.2276
lwrist -27.4725
lhand -8.29287 10.0999
lfingers 7.12502
lthumb 17.627 39.3209
rfemur -37.8069 -6.1665 17.3521
rtibia 48.3903
rfoot -12.9871 3.234
rtoes -1.47853
lfemur -7.67613 2.86668 -25.3915
ltibia 17.7437
lfoot -5.39768 -17.9261
ltoes 7.55702
172
root 16.769 16.1366 22.7475 -172.977 -5.13193 -181.844
lowerback -6.94476 -2.75612 -5.29844
upperback 2.07909 -3.21687 0.256634
thorax 6.39337 -1.80067 2.83511
lowerneck 1.06762 -1.74827 -5.4643
upperneck -7.38046 -1.68421 8.70125
head -2.45543 -0.807144 3.91005
rclavicle -4.39563e-014 6.36111e-015
rhumerus -39.8962 -29.2714 -69.6672
rradius 24.1462
rwrist 34.7382
rhand -1.00555 -6.23515
rfingers 7.12502
rthumb 24.6269 -34.6708
lclavicle -4.39563e-014 6.36111e-015
lhumerus -23.785 7.05558 84.8156
lradius 21.4328
lwrist -27.2698
lhand -8.12344 10.096
lfingers 7.12502
lthumb 17.7901 39.3023
rfemur -37.9724 -5.78372 17.2046
rtibia 44.4238
rfoot -12.6871 4.65389
rtoes 0.76243
lfemur -6.31491 2.73438 -25.0673
ltibia 16.1878
lfoot -5.0741 -18.1567
ltoes 6.85668
